<mxfile host="app.diagrams.net" modified="2023-05-04T13:44:34.938Z" agent="Mozilla/5.0 (Windows NT 10.0; Win64; x64) AppleWebKit/537.36 (KHTML, like Gecko) Chrome/112.0.0.0 Safari/537.36 Edg/112.0.1722.68" version="21.2.8" etag="Fn4q-q40Y53JW5AxEr4h" type="github">
  <diagram name="Page-1" id="BXCrnupGK56XtFK2XrwI">
    <mxGraphModel>
      <root>
        <mxCell id="0" />
        <mxCell id="1" parent="0" />
      </root>
    </mxGraphModel>
  </diagram>
</mxfile>
